<svg width="448" height="512" viewBox="0 0 448 512" fill="none" xmlns="http://www.w3.org/2000/svg">
<path d="M322.099 84.774C327.49 72.2518 323.469 57.6273 312.412 49.5839C301.354 41.5404 286.275 42.2716 275.948 51.2291L41.999 255.972C32.8604 264.015 29.5704 276.903 33.8656 288.237C38.1608 299.571 49.1272 307.249 61.2816 307.249H163.178L92.9013 471.226C87.5095 483.748 91.5305 498.373 102.588 506.416C113.646 514.46 128.725 513.728 139.051 504.771L373.001 300.028C382.14 291.985 385.43 279.097 381.134 267.763C376.839 256.429 365.964 248.842 353.718 248.842H251.822L322.099 84.774Z" fill="black"/>
<path d="M372.5 241C392.524 241 411.728 233.046 425.887 218.887C440.046 204.728 448 185.524 448 165.5C448 145.476 440.046 126.272 425.887 112.113C411.728 97.9544 392.524 90 372.5 90C352.476 90 333.272 97.9544 319.113 112.113C304.954 126.272 297 145.476 297 165.5C297 185.524 304.954 204.728 319.113 218.887C333.272 233.046 352.476 241 372.5 241ZM351.266 158.422H393.734C397.657 158.422 400.812 161.578 400.812 165.5C400.812 169.422 397.657 172.578 393.734 172.578H351.266C347.343 172.578 344.188 169.422 344.188 165.5C344.188 161.578 347.343 158.422 351.266 158.422Z" fill="black"/>
</svg>
